<svg width="88" height="32" fill="none" xmlns="http://www.w3.org/2000/svg"><path d="M7.851 19.498h2.51c-.174 1.172-.692 2.113-1.555 2.823-.852.71-1.942 1.065-3.27 1.065-1.737 0-3.097-.543-4.08-1.63C.487 20.66 0 19.214 0 17.417c0-1.796.491-3.237 1.473-4.324.982-1.097 2.336-1.645 4.063-1.645 1.263 0 2.315.328 3.157.984.842.645 1.36 1.506 1.554 2.581H7.72c-.27-.946-.998-1.42-2.185-1.42-.993 0-1.753.36-2.282 1.082-.518.71-.777 1.624-.777 2.742 0 1.12.259 2.039.777 2.76.529.71 1.29 1.064 2.282 1.064.615 0 1.123-.15 1.522-.451.41-.312.674-.743.793-1.291zm14.161-7.842v2.114h-3.594v9.407h-2.412V13.77h-3.593v-2.114h9.599zm6.678 5.164h.453l2.444-5.164h2.444l-5.536 11.52h-2.412l1.651-3.452-4.273-8.068h2.525l2.703 5.164zm16.474 4.21h1.65V26h-2.346v-2.823h-7.592V26h-2.347v-4.97h1.197c.918-1.624 1.376-3.904 1.376-6.84v-2.534h8.062v9.375zm-2.348 0v-7.228h-3.48v1.017c0 2.689-.388 4.76-1.165 6.212h4.645zm6.74-9.374h2.25v8.035h.42l4.161-8.034h3.254v11.52h-2.267v-8.213h-.42l-4.258 8.213h-3.14v-11.52zm14.781 11.521v-11.52h2.412v4.501h2.735l2.12-4.502h2.494l-2.59 5.6 2.735 5.92h-2.492l-2.25-4.84h-2.752v4.84h-2.412zm21.219 0l-.94-3.114h-4.402l-.94 3.114h-2.379l3.675-11.52h3.74L88 23.176h-2.444zm-3.513-9.213l-1.214 4.001h3.14l-1.214-4.001h-.712zM38.158 2H35.63l-3.035 6.05h2.53L38.157 2z" fill="#222"/></svg>