<?xml version="1.0" encoding="utf-8"?><svg xmlns="http://www.w3.org/2000/svg" xmlns:xlink="http://www.w3.org/1999/xlink"><symbol fill="none" viewBox="0 0 32 32" id="arrow" xmlns="http://www.w3.org/2000/svg"><path d="M13 11l6 6-6 6" stroke="#222" stroke-linecap="round"/></symbol><symbol viewBox="0 0 100 100" id="burger"><path class="bline bline1" d="M20 29h60s14.499-.183 14.533 37.711c.01 11.27-3.567 14.96-9.274 14.958C79.552 81.668 75 74.999 75 74.999L25 25"/><path class="bline bline2" d="M20 50h60"/><path class="bline bline3" d="M20 71h60s14.499.183 14.533-37.711c.01-11.27-3.567-14.96-9.274-14.958-5.707.001-10.259 6.67-10.259 6.67L25 75"/></symbol><symbol fill="none" viewBox="0 0 32 32" id="city-arrow" xmlns="http://www.w3.org/2000/svg"><path d="M7.554 18.564l14.393-9.97a.592.592 0 01.905.703l-6.076 16.42c-.206.557-.963.606-1.162.076l-1.93-5.121a.568.568 0 00-.474-.368l-5.44-.595c-.563-.062-.704-.807-.216-1.145z" fill="#A7A7A7"/><rect x=".5" y=".5" width="31" height="31" rx="15.5" stroke="#A7A7A7"/></symbol><symbol viewBox="0 0 32 32" id="close" xmlns="http://www.w3.org/2000/svg"><path d="M23 10.41L21.59 9 16 14.59 10.41 9 9 10.41 14.59 16 9 21.59 10.41 23 16 17.41 21.59 23 23 21.59 17.41 16 23 10.41z"/></symbol><symbol fill="none" viewBox="0 0 33 32" id="heart" xmlns="http://www.w3.org/2000/svg"><path d="M16.5 23.012l-1.088-.99C11.55 18.52 9 16.21 9 13.376a4.085 4.085 0 014.125-4.125 4.49 4.49 0 013.375 1.568 4.491 4.491 0 013.375-1.568A4.085 4.085 0 0124 13.375c0 2.835-2.55 5.145-6.413 8.655l-1.087.982z" fill="#A7A7A7"/></symbol><symbol fill="none" viewBox="0 0 32 32" id="search" xmlns="http://www.w3.org/2000/svg"><path fill-rule="evenodd" clip-rule="evenodd" d="M9.7 15.65a5.95 5.95 0 1110.236 4.127.848.848 0 00-.159.159A5.95 5.95 0 019.7 15.65zm10.725 5.977a7.65 7.65 0 111.202-1.202l3.124 3.124a.85.85 0 01-1.202 1.202l-3.124-3.124z" fill="#A7A7A7"/></symbol><symbol stroke="#0656b4" fill="transparent" viewBox="0 0 24 24" id="spinner" xmlns="http://www.w3.org/2000/svg"><style>@keyframes spinner_rcyq{0%{transform:translate(12px,12px) scale(0);opacity:1}}.spinner_l9ve{animation:s}.gspinner_l9ve{animation:spinner_rcyq 1.2s cubic-bezier(.52,.6,.25,.99) infinite}</style><path class="gspinner_l9ve" d="M12 12zm0 0z" stroke-width="0"/><path class="gspinner_l9ve" d="M12 12h0zm0 0h0z" style="animation-delay:.4s" stroke-width="0"/><path class="gspinner_l9ve" d="M12 12h0zm0 0h0z" style="animation-delay:.8s" stroke-width="0"/></symbol></svg>